<?xml version="1.0" encoding="UTF-8" standalone="no"?>
<svg width="140px" height="97px" viewBox="0 0 140 97" version="1.1" xmlns="http://www.w3.org/2000/svg" xmlns:xlink="http://www.w3.org/1999/xlink" xmlns:sketch="http://www.bohemiancoding.com/sketch/ns">
    <!-- Generator: Sketch 3.3.2 (12043) - http://www.bohemiancoding.com/sketch -->
    <title>Group</title>
    <desc>Created with Sketch.</desc>
    <defs></defs>
    <g id="Portrait" stroke="none" stroke-width="1" fill="none" fill-rule="evenodd" sketch:type="MSPage">
        <g id="Home---iPad-Portrait-Copy-6" sketch:type="MSArtboardGroup" transform="translate(-313.000000, -85.000000)" fill="#FFFFFF">
            <g id="NEW-ZEALAND--MARINE--+-Taipari-Taitimu-Taio-+-Life-bountiful-is-in" sketch:type="MSLayerGroup" transform="translate(338.000000, 112.000000)">
                <g id="Group" transform="translate(0.467262, 0.497541)" sketch:type="MSShapeGroup">
                    <path d="M80.6514425,0.130585712 L84.1374216,0.130585712 L84.1374216,40.1723976 L80.6514425,40.1723976 L80.6514425,0.130585712 Z" id="Fill-19"></path>
                    <path d="M75.0070356,0.130585712 L78.4919864,0.130585712 L78.4919864,40.1749783 L75.0070356,40.1749783 L75.0070356,0.130585712 Z" id="Fill-20"></path>
                    <path d="M43.4974866,0.130585712 L46.9829516,0.130585712 L46.9829516,40.1749783 L43.4974866,40.1749783 L43.4974866,0.130585712 Z" id="Fill-21"></path>
                    <path d="M64.7290531,40.2632398 L49.0637417,0.130585712 L52.8083414,0.130585712 L68.4741669,40.2632398 L64.7290531,40.2632398" id="Fill-22"></path>
                    <path d="M15.7227683,0.130585712 L0.0579711124,40.2632398 L3.80154246,40.2632398 L19.4678821,0.130585712 L15.7227683,0.130585712" id="Fill-23"></path>
                    <path d="M21.3388965,0.130585712 L5.67307106,40.2632398 L9.41869903,40.2632398 L25.0834962,0.130585712 L21.3388965,0.130585712" id="Fill-24"></path>
                    <path d="M33.3634678,35.6917076 L29.618354,35.6917076 L31.4029902,40.2632398 L35.148104,40.2632398 L33.3634678,35.6917076" id="Fill-25"></path>
                    <path d="M32.4868314,28.6519505 L36.2304028,28.6519505 L26.0285153,2.51571052 L24.1575009,7.31228375 L32.4868314,28.6519505" id="Fill-26"></path>
                    <path d="M40.7632039,40.2632398 L36.9245137,30.4275033 L33.1804282,30.4275033 L33.1804282,30.4311163 L14.981355,30.4311163 L13.7669181,33.9275101 L34.546027,33.9275101 L37.0186043,40.2632398 L40.7632039,40.2632398" id="Fill-27"></path>
                    <path d="M29.2507323,25.1560729 L29.2507323,25.1560729 L23.2207083,9.70876384 L21.3481514,14.5053371 L25.5056185,25.1560729 L17.1901701,25.1560729 L15.8250854,28.6560797 L30.6168453,28.6560797 L29.2507323,25.1560729" id="Fill-28"></path>
                    <path d="M46.9320501,0.130585712 L43.4476135,0.130585712 L59.1118965,40.2596268 L59.1108682,40.2632398 L62.4770489,40.2632398 L46.9320501,0.130585712" id="Fill-29"></path>
                    <path d="M66.7512294,30.2840139 L78.5212933,0.130585712 L74.7761795,0.130585712 L64.8858707,25.4683431 L66.7512294,30.2840139" id="Fill-30"></path>
                    <path d="M49.1413793,20.4653103 L49.1413793,40.1723976 L52.6273584,40.1723976 L52.6273584,29.4654015 L49.1413793,20.4653103" id="Fill-31"></path>
                    <path d="M64.7259681,40.2632398 L68.4710819,40.2632398 L72.8768865,28.9766083 L72.8768865,19.383978 L64.7259681,40.2632398" id="Fill-32"></path>
                </g>
            </g>
        </g>
    </g>
</svg>