<?xml version="1.0" encoding="UTF-8" standalone="no"?>
<svg width="131px" height="106px" viewBox="0 0 131 106" version="1.1" xmlns="http://www.w3.org/2000/svg" xmlns:xlink="http://www.w3.org/1999/xlink" xmlns:sketch="http://www.bohemiancoding.com/sketch/ns">
    <!-- Generator: Sketch 3.3.2 (12043) - http://www.bohemiancoding.com/sketch -->
    <title>AM Logo</title>
    <desc>Created with Sketch.</desc>
    <defs></defs>
    <g id="Portrait" stroke="none" stroke-width="1" fill="none" fill-rule="evenodd" sketch:type="MSPage">
        <g id="Home---iPad-Portrait" sketch:type="MSArtboardGroup" transform="translate(-321.000000, -143.000000)" fill="#FFFFFF">
            <g id="NEW-ZEALAND--MARINE--+-Taipari-Taitimu-Taio-+-Life-bountiful-is-in" sketch:type="MSLayerGroup" transform="translate(114.000000, 171.000000)">
                <g id="AM-Logo" transform="translate(228.000000, 0.000000)" sketch:type="MSShapeGroup">
                    <path d="M75.6982535,0.114028169 L78.7540282,0.114028169 L78.7540282,35.0787606 L75.6982535,35.0787606 L75.6982535,0.114028169 Z" id="Fill-19"></path>
                    <path d="M70.7504225,0.114028169 L73.8052958,0.114028169 L73.8052958,35.0810141 L70.7504225,35.0810141 L70.7504225,0.114028169 Z" id="Fill-20"></path>
                    <path d="M43.1294648,0.114028169 L46.1847887,0.114028169 L46.1847887,35.0810141 L43.1294648,35.0810141 L43.1294648,0.114028169 Z" id="Fill-21"></path>
                    <path d="M61.7408451,35.1580845 L48.0087887,0.114028169 L51.2912676,0.114028169 L65.0237746,35.1580845 L61.7408451,35.1580845" id="Fill-22"></path>
                    <path d="M18.7824225,0.114028169 L5.0508169,35.1580845 L8.33239437,35.1580845 L22.0653521,0.114028169 L18.7824225,0.114028169" id="Fill-23"></path>
                    <path d="M23.7054648,0.114028169 L9.97295775,35.1580845 L13.256338,35.1580845 L26.9879437,0.114028169 L23.7054648,0.114028169" id="Fill-24"></path>
                    <path d="M34.2460845,31.1661972 L30.9631549,31.1661972 L32.5275493,35.1580845 L35.8104789,35.1580845 L34.2460845,31.1661972" id="Fill-25"></path>
                    <path d="M33.4776338,25.0190423 L36.7592113,25.0190423 L27.816338,2.19673239 L26.1762254,6.38512676 L33.4776338,25.0190423" id="Fill-26"></path>
                    <path d="M40.7326197,35.1580845 L37.367662,26.5694648 L34.0856338,26.5694648 L34.0856338,26.5726197 L18.132507,26.5726197 L17.0679437,29.6256901 L35.2827042,29.6256901 L37.4501408,35.1580845 L40.7326197,35.1580845" id="Fill-27"></path>
                    <path d="M30.6409014,21.9664225 L30.6409014,21.9664225 L25.3550423,8.47774648 L23.7135775,12.6661408 L27.3579718,21.9664225 L20.0687324,21.9664225 L18.8721127,25.0226479 L31.8384225,25.0226479 L30.6409014,21.9664225" id="Fill-28"></path>
                    <path d="M46.140169,0.114028169 L43.0857465,0.114028169 L56.8169014,35.1549296 L56.816,35.1580845 L59.7667606,35.1580845 L46.140169,0.114028169" id="Fill-29"></path>
                    <path d="M63.5134648,26.444169 L73.8309859,0.114028169 L70.5480563,0.114028169 L61.8783099,22.2390986 L63.5134648,26.444169" id="Fill-30"></path>
                    <path d="M48.0768451,17.8704225 L48.0768451,35.0787606 L51.1326197,35.0787606 L51.1326197,25.7293521 L48.0768451,17.8704225" id="Fill-31"></path>
                    <path d="M61.7381408,35.1580845 L65.0210704,35.1580845 L68.8831549,25.3025352 L68.8831549,16.9261972 L61.7381408,35.1580845" id="Fill-32"></path>
                    <path d="M0.389183099,46.8214085 L4.12732394,46.8214085 L4.12732394,47.352338 L2.54940845,47.352338 L2.54940845,51.4744789 L1.96709859,51.4744789 L1.96709859,47.352338 L0.389183099,47.352338 L0.389183099,46.8214085" id="Fill-33"></path>
                    <path d="M7.39447887,46.8214085 L9.16394366,51.4744789 L8.57442254,51.4744789 L8.05070423,50.072338 L6.18523944,50.072338 L5.6691831,51.4744789 L5.07921127,51.4744789 L6.84867606,46.8214085 L7.39447887,46.8214085 L7.39447887,46.8214085 Z M6.37723944,49.5495211 L7.85149296,49.5495211 L7.11459155,47.5632676 L6.37723944,49.5495211 L6.37723944,49.5495211 Z" id="Fill-34"></path>
                    <path d="M12.9620282,50.4360563 L11.4066479,47.8967887 L11.4066479,51.4744789 L10.8387606,51.4744789 L10.8387606,46.8214085 L11.3769014,46.8214085 L12.9841127,49.496338 L14.5845634,46.8214085 L15.0934085,46.8214085 L15.0934085,51.4744789 L14.5255211,51.4744789 L14.5255211,47.8967887 L12.9917746,50.4360563 L12.9620282,50.4360563" id="Fill-35"></path>
                    <path d="M19.0830423,46.8214085 L20.852507,51.4744789 L20.2625352,51.4744789 L19.7392676,50.072338 L17.8742535,50.072338 L17.3577465,51.4744789 L16.7682254,51.4744789 L18.5372394,46.8214085 L19.0830423,46.8214085 L19.0830423,46.8214085 Z M18.0653521,49.5495211 L19.540507,49.5495211 L18.8027042,47.5632676 L18.0653521,49.5495211 L18.0653521,49.5495211 Z" id="Fill-36"></path>
                    <path d="M23.1100845,48.8901408 L25.1522254,46.8214085 L25.8823662,46.8214085 L23.6554366,49.0492394 L25.9486197,51.4744789 L25.1968451,51.4744789 L23.1100845,49.284507 L23.1100845,51.4744789 L22.5277746,51.4744789 L22.5277746,46.8214085 L23.1100845,46.8214085 L23.1100845,48.8901408" id="Fill-37"></path>
                    <path d="M27.5864789,46.8214085 L28.1692394,46.8214085 L28.1692394,51.4744789 L27.5864789,51.4744789 L27.5864789,46.8214085 Z" id="Fill-38"></path>
                    <path d="M33.419493,49.6099155 L33.419493,51.4744789 L32.8367324,51.4744789 L32.8367324,46.8214085 L34.5106479,46.8214085 C35.4251268,46.8214085 36.0223099,47.2982535 36.0223099,48.2154366 C36.0223099,49.1249577 35.4251268,49.6099155 34.5106479,49.6099155 L33.419493,49.6099155 L33.419493,49.6099155 Z M34.5034366,47.3442254 L33.419493,47.3442254 L33.419493,49.0794366 L34.5034366,49.0794366 C35.115493,49.0794366 35.4472113,48.7387042 35.4472113,48.2154366 C35.4472113,47.6849577 35.115493,47.3442254 34.5034366,47.3442254 L34.5034366,47.3442254 Z" id="Fill-39"></path>
                    <path d="M39.3998873,46.8214085 L41.1698028,51.4744789 L40.5802817,51.4744789 L40.0565634,50.072338 L38.1910986,50.072338 L37.6745915,51.4744789 L37.0850704,51.4744789 L38.8545352,46.8214085 L39.3998873,46.8214085 L39.3998873,46.8214085 Z M38.3826479,49.5495211 L39.8573521,49.5495211 L39.12,47.5632676 L38.3826479,49.5495211 L38.3826479,49.5495211 Z" id="Fill-40"></path>
                    <path d="M45.7273239,46.8214085 L45.7273239,47.352338 L43.4192676,47.352338 L43.4192676,48.8220845 L45.5136901,48.8220845 L45.5136901,49.3525634 L43.4192676,49.3525634 L43.4192676,50.9367887 L45.7273239,50.9367887 L45.7273239,51.4744789 L42.844169,51.4744789 L42.844169,46.8214085 L45.7273239,46.8214085" id="Fill-41"></path>
                    <path d="M51.1402817,51.4744789 L50.7125634,51.4744789 L48.183662,47.7764507 L48.183662,51.4744789 L47.6234366,51.4744789 L47.6234366,46.8214085 L48.1764507,46.8214085 L50.5877183,50.360338 L50.5877183,46.8214085 L51.1402817,46.8214085 L51.1402817,51.4744789" id="Fill-42"></path>
                    <path d="M56.1034366,50.656 L56.1034366,49.5571831 L55.107831,49.5571831 L55.107831,49.0569014 L56.6415775,49.0569014 L56.6415775,50.8759437 C56.2070986,51.3685634 55.6090141,51.5425352 55.0492394,51.5425352 C53.788169,51.5425352 52.9327324,50.5879437 52.9327324,49.1479437 C52.9327324,47.7002817 53.8692958,46.7529014 55.1159437,46.7529014 C55.6459718,46.7529014 56.1034366,46.912 56.4202817,47.1693521 L56.4202817,47.8061972 C56.0371831,47.4501408 55.6090141,47.2910423 55.1159437,47.2910423 C54.1717183,47.2910423 53.515493,48.0265915 53.515493,49.1479437 C53.515493,50.2697465 54.120338,51.012507 55.063662,51.012507 C55.476507,51.012507 55.8086761,50.9061408 56.1034366,50.656" id="Fill-43"></path>
                    <path d="M60.4617465,46.8214085 L62.231662,51.4744789 L61.6416901,51.4744789 L61.1179718,50.072338 L59.2529577,50.072338 L58.7369014,51.4744789 L58.1464789,51.4744789 L59.9163944,46.8214085 L60.4617465,46.8214085 L60.4617465,46.8214085 Z M59.444507,49.5495211 L60.9192113,49.5495211 L60.1818592,47.5632676 L59.444507,49.5495211 L59.444507,49.5495211 Z" id="Fill-44"></path>
                    <path d="M70.2406761,46.8214085 L70.2406761,51.4744789 L69.6579155,51.4744789 L69.6579155,49.3525634 L67.0997183,49.3525634 L67.0997183,51.4744789 L66.5169577,51.4744789 L66.5169577,46.8214085 L67.0997183,46.8214085 L67.0997183,48.8144225 L69.6579155,48.8144225 L69.6579155,46.8214085 L70.2406761,46.8214085" id="Fill-45"></path>
                    <path d="M72.2985915,46.8214085 L72.8809014,46.8214085 L72.8809014,51.4744789 L72.2985915,51.4744789 L72.2985915,46.8214085 Z" id="Fill-46"></path>
                    <path d="M75.5211268,49.504 L75.5211268,51.4744789 L74.9383662,51.4744789 L74.9383662,46.8214085 L76.5974085,46.8214085 C77.5118873,46.8214085 78.1018592,47.2910423 78.1018592,48.1703662 C78.1018592,48.9433239 77.6592676,49.3750986 76.944,49.4814648 L78.2861972,51.4744789 L77.6223099,51.4744789 L76.3247324,49.504 L75.5211268,49.504 L75.5211268,49.504 Z M75.5211268,48.996507 L76.5825352,48.996507 C77.180169,48.996507 77.5263099,48.6850704 77.5263099,48.1703662 C77.5263099,47.6547606 77.180169,47.3442254 76.5825352,47.3442254 L75.5211268,47.3442254 L75.5211268,48.996507 L75.5211268,48.996507 Z" id="Fill-47"></path>
                    <path d="M81.9215775,46.8214085 L83.691493,51.4744789 L83.1015211,51.4744789 L82.5778028,50.072338 L80.7127887,50.072338 L80.1967324,51.4744789 L79.6067606,51.4744789 L81.3762254,46.8214085 L81.9215775,46.8214085 L81.9215775,46.8214085 Z M80.904338,49.5495211 L82.3790423,49.5495211 L81.6416901,47.5632676 L80.904338,49.5495211 L80.904338,49.5495211 Z" id="Fill-48"></path>
                </g>
            </g>
        </g>
    </g>
</svg>