<?xml version="1.0" encoding="UTF-8" standalone="no"?>
<svg width="145px" height="51px" viewBox="0 0 145 51" version="1.1" xmlns="http://www.w3.org/2000/svg" xmlns:xlink="http://www.w3.org/1999/xlink" xmlns:sketch="http://www.bohemiancoding.com/sketch/ns">
    <!-- Generator: Sketch 3.3.2 (12043) - http://www.bohemiancoding.com/sketch -->
    <title>AWMM_Logo_reverse</title>
    <desc>Created with Sketch.</desc>
    <defs></defs>
    <g id="Page-1" stroke="none" stroke-width="1" fill="none" fill-rule="evenodd" sketch:type="MSPage">
        <g id="AWMM_Logo_reverse" sketch:type="MSLayerGroup" fill="#FFFFFF">
            <path d="M87.411,27.872 L89.978,27.872 L98.484,6.602 L98.484,27.872 L100.866,27.872 L100.866,0.645 L98.301,0.645 L88.694,24.665 L79.087,0.645 L76.521,0.645 L87.411,27.872" id="Fill-1" sketch:type="MSShapeGroup"></path>
            <path d="M94.269,0.645 L87.411,17.792 L88.694,20.999 L96.835,0.645 L94.269,0.645" id="Fill-2" sketch:type="MSShapeGroup"></path>
            <path d="M74.871,27.872 L74.871,6.602 L83.379,27.872 L85.945,27.872 L75.055,0.645 L72.489,0.645 L72.489,27.872 L74.871,27.872" id="Fill-3" sketch:type="MSShapeGroup"></path>
            <path d="M78.614,27.872 L78.614,19.627 L76.232,13.67 L76.232,27.872 L78.614,27.872" id="Fill-4" sketch:type="MSShapeGroup"></path>
            <path d="M97.124,27.872 L97.124,13.67 L94.741,19.627 L94.741,27.872 L97.124,27.872" id="Fill-5" sketch:type="MSShapeGroup"></path>
            <path d="M60.237,0.645 L57.671,0.645 L64.478,17.662 L53.431,17.662 L56.206,10.726 L54.923,7.518 L46.781,27.872 L49.348,27.872 L52.478,20.045 L65.431,20.045 L68.562,27.872 L71.128,27.872 L60.237,0.645" id="Fill-6" sketch:type="MSShapeGroup"></path>
            <path d="M67.096,27.872 L64.509,21.406 L53.4,21.406 L52.447,23.788 L62.896,23.788 L64.53,27.872 L67.096,27.872" id="Fill-7" sketch:type="MSShapeGroup"></path>
            <path d="M62.468,16.301 L56.206,0.645 L53.64,0.645 L42.749,27.872 L45.315,27.872 L54.923,3.853 L59.901,16.301 L62.468,16.301" id="Fill-8" sketch:type="MSShapeGroup"></path>
            <path d="M38.269,36.743 L37.259,36.743 L37.259,36.382 L39.671,36.382 L39.671,36.743 L38.655,36.743 L38.655,39.99 L38.269,39.99 L38.269,36.743" id="Fill-9" sketch:type="MSShapeGroup"></path>
            <path d="M43.32,38.691 L42.64,36.862 L41.954,38.691 L43.32,38.691 L43.32,38.691 Z M42.454,36.362 L42.835,36.362 L44.212,39.99 L43.8,39.99 L43.448,39.042 L41.825,39.042 L41.476,39.99 L41.078,39.99 L42.454,36.362 L42.454,36.362 Z" id="Fill-10" sketch:type="MSShapeGroup"></path>
            <path d="M45.918,36.382 L46.319,36.382 L47.418,38.315 L48.521,36.382 L48.923,36.382 L48.923,39.99 L48.536,39.99 L48.536,37.083 L47.423,39.011 L47.407,39.011 L46.294,37.083 L46.294,39.99 L45.918,39.99 L45.918,36.382" id="Fill-11" sketch:type="MSShapeGroup"></path>
            <path d="M52.876,38.691 L52.196,36.862 L51.511,38.691 L52.876,38.691 L52.876,38.691 Z M52.011,36.362 L52.392,36.362 L53.768,39.99 L53.355,39.99 L53.005,39.042 L51.382,39.042 L51.03,39.99 L50.634,39.99 L52.011,36.362 L52.011,36.362 Z" id="Fill-12" sketch:type="MSShapeGroup"></path>
            <path d="M55.448,36.382 L55.835,36.382 L55.835,38.465 L57.546,36.382 L58.025,36.382 L56.711,37.959 L58.097,39.99 L57.628,39.99 L56.442,38.274 L55.835,38.98 L55.835,39.99 L55.448,39.99 L55.448,36.382" id="Fill-13" sketch:type="MSShapeGroup"></path>
            <path d="M59.798,36.382 L60.185,36.382 L60.185,39.99 L59.798,39.99 L59.798,36.382 Z" id="Fill-14" sketch:type="MSShapeGroup"></path>
            <path d="M65.731,38.367 C66.292,38.367 66.644,38.042 66.644,37.547 L66.644,37.542 C66.644,37.017 66.292,36.738 65.746,36.738 L65.065,36.738 L65.065,38.367 L65.731,38.367 L65.731,38.367 Z M64.679,36.382 L65.767,36.382 C66.534,36.382 67.034,36.815 67.034,37.527 L67.034,37.537 C67.034,38.3 66.458,38.712 65.721,38.717 L65.065,38.717 L65.065,39.99 L64.679,39.99 L64.679,36.382 L64.679,36.382 Z" id="Fill-15" sketch:type="MSShapeGroup"></path>
            <path d="M70.628,38.691 L69.946,36.862 L69.261,38.691 L70.628,38.691 L70.628,38.691 Z M69.761,36.362 L70.143,36.362 L71.519,39.99 L71.106,39.99 L70.757,39.042 L69.133,39.042 L68.782,39.99 L68.386,39.99 L69.761,36.362 L69.761,36.362 Z" id="Fill-16" sketch:type="MSShapeGroup"></path>
            <path d="M73.194,36.382 L75.396,36.382 L75.396,36.738 L73.581,36.738 L73.581,37.996 L75.21,37.996 L75.21,38.346 L73.581,38.346 L73.581,39.635 L75.421,39.635 L75.421,39.99 L73.194,39.99 L73.194,36.382" id="Fill-17" sketch:type="MSShapeGroup"></path>
            <path d="M77.267,36.382 L77.632,36.382 L79.519,39.223 L79.519,36.382 L79.899,36.382 L79.899,39.99 L79.575,39.99 L77.642,37.083 L77.642,39.99 L77.267,39.99 L77.267,36.382" id="Fill-18" sketch:type="MSShapeGroup"></path>
            <path d="M81.709,38.207 L81.709,38.171 C81.709,37.125 82.368,36.331 83.317,36.331 C83.786,36.331 84.101,36.465 84.409,36.717 L84.178,37.027 C83.956,36.831 83.698,36.692 83.307,36.692 C82.621,36.692 82.11,37.31 82.11,38.171 L82.11,38.197 C82.11,39.104 82.601,39.691 83.343,39.691 C83.651,39.691 83.936,39.578 84.121,39.434 L84.121,38.418 L83.22,38.418 L83.22,38.073 L84.492,38.073 L84.492,39.619 C84.214,39.846 83.807,40.042 83.327,40.042 C82.343,40.042 81.709,39.294 81.709,38.207" id="Fill-19" sketch:type="MSShapeGroup"></path>
            <path d="M88.327,38.691 L87.646,36.862 L86.961,38.691 L88.327,38.691 L88.327,38.691 Z M87.461,36.362 L87.843,36.362 L89.219,39.99 L88.806,39.99 L88.456,39.042 L86.832,39.042 L86.481,39.99 L86.085,39.99 L87.461,36.362 L87.461,36.362 Z" id="Fill-20" sketch:type="MSShapeGroup"></path>
            <path d="M93.316,36.382 L93.702,36.382 L93.702,37.996 L95.444,37.996 L95.444,36.382 L95.831,36.382 L95.831,39.99 L95.444,39.99 L95.444,38.356 L93.702,38.356 L93.702,39.99 L93.316,39.99 L93.316,36.382" id="Fill-21" sketch:type="MSShapeGroup"></path>
            <path d="M97.837,36.382 L98.224,36.382 L98.224,39.99 L97.837,39.99 L97.837,36.382 Z" id="Fill-22" sketch:type="MSShapeGroup"></path>
            <path d="M101.383,38.238 C101.97,38.238 102.295,37.944 102.295,37.485 L102.295,37.475 C102.295,37.001 101.965,36.738 101.424,36.738 L100.604,36.738 L100.604,38.238 L101.383,38.238 L101.383,38.238 Z M100.218,36.382 L101.45,36.382 C101.862,36.382 102.192,36.506 102.397,36.717 C102.579,36.898 102.682,37.156 102.682,37.46 L102.682,37.47 C102.682,38.042 102.325,38.388 101.826,38.511 L102.795,39.99 L102.331,39.99 L101.424,38.588 L100.604,38.588 L100.604,39.99 L100.218,39.99 L100.218,36.382 L100.218,36.382 Z" id="Fill-23" sketch:type="MSShapeGroup"></path>
            <path d="M106.479,38.691 L105.8,36.862 L105.114,38.691 L106.479,38.691 L106.479,38.691 Z M105.614,36.362 L105.995,36.362 L107.372,39.99 L106.96,39.99 L106.608,39.042 L104.985,39.042 L104.635,39.99 L104.238,39.99 L105.614,36.362 L105.614,36.362 Z" id="Fill-24" sketch:type="MSShapeGroup"></path>
            <path d="M2.821,49.084 L2.136,47.155 L1.448,49.084 L2.821,49.084 L2.821,49.084 Z M1.765,46.091 L2.534,46.091 L4.298,50.924 L3.468,50.924 L3.069,49.792 L1.202,49.792 L0.804,50.924 L0,50.924 L1.765,46.091 L1.765,46.091 Z" id="Fill-25" sketch:type="MSShapeGroup"></path>
            <path d="M5.918,49.091 L5.918,46.119 L6.714,46.119 L6.714,49.084 C6.714,49.86 7.092,50.265 7.71,50.265 C8.313,50.265 8.698,49.874 8.698,49.112 L8.698,46.119 L9.487,46.119 L9.487,49.064 C9.487,50.355 8.78,51 7.696,51 C6.625,51 5.918,50.348 5.918,49.091" id="Fill-26" sketch:type="MSShapeGroup"></path>
            <path d="M11.355,48.549 L11.355,48.501 C11.355,47.045 12.261,46.05 13.504,46.05 C14.177,46.05 14.623,46.291 15.015,46.647 L14.534,47.258 C14.253,46.998 13.937,46.792 13.504,46.792 C12.749,46.792 12.179,47.478 12.179,48.501 L12.179,48.528 C12.179,49.572 12.749,50.251 13.504,50.251 C13.964,50.251 14.267,50.039 14.568,49.75 L15.035,50.314 C14.616,50.746 14.129,50.993 13.463,50.993 C12.233,50.993 11.355,50.018 11.355,48.549" id="Fill-27" sketch:type="MSShapeGroup"></path>
            <path d="M16.86,46.119 L17.657,46.119 L17.657,48.48 L19.519,46.119 L20.479,46.119 L18.804,48.185 L20.555,50.924 L19.606,50.924 L18.255,48.817 L17.657,49.538 L17.657,50.924 L16.86,50.924 L16.86,46.119" id="Fill-28" sketch:type="MSShapeGroup"></path>
            <path d="M22.271,46.119 L23.067,46.119 L23.067,50.19 L25.126,50.19 L25.126,50.924 L22.271,50.924 L22.271,46.119" id="Fill-29" sketch:type="MSShapeGroup"></path>
            <path d="M29.349,49.084 L28.662,47.155 L27.976,49.084 L29.349,49.084 L29.349,49.084 Z M28.292,46.091 L29.061,46.091 L30.825,50.924 L29.994,50.924 L29.596,49.792 L27.729,49.792 L27.33,50.924 L26.526,50.924 L28.292,46.091 L28.292,46.091 Z" id="Fill-30" sketch:type="MSShapeGroup"></path>
            <path d="M32.527,46.119 L33.269,46.119 L35.384,49.325 L35.384,46.119 L36.159,46.119 L36.159,50.924 L35.486,50.924 L33.31,47.622 L33.31,50.924 L32.527,50.924 L32.527,46.119" id="Fill-31" sketch:type="MSShapeGroup"></path>
            <path d="M39.228,46.839 L39.228,50.204 L39.894,50.204 C40.772,50.204 41.356,49.579 41.356,48.549 L41.356,48.508 C41.356,47.471 40.772,46.839 39.894,46.839 L39.228,46.839 L39.228,46.839 Z M38.431,46.119 L39.9,46.119 C41.273,46.119 42.18,47.08 42.18,48.487 L42.18,48.542 C42.18,49.95 41.273,50.924 39.9,50.924 L38.431,50.924 L38.431,46.119 L38.431,46.119 Z" id="Fill-32" sketch:type="MSShapeGroup"></path>
            <path d="M46.71,46.119 L47.556,46.119 L48.495,49.606 L49.478,46.105 L50.164,46.105 L51.146,49.606 L52.086,46.119 L52.91,46.119 L51.509,50.952 L50.788,50.952 L49.807,47.561 L48.825,50.952 L48.104,50.952 L46.71,46.119" id="Fill-33" sketch:type="MSShapeGroup"></path>
            <path d="M56.72,49.084 L56.034,47.155 L55.347,49.084 L56.72,49.084 L56.72,49.084 Z M55.663,46.091 L56.432,46.091 L58.196,50.924 L57.365,50.924 L56.968,49.792 L55.1,49.792 L54.702,50.924 L53.898,50.924 L55.663,46.091 L55.663,46.091 Z" id="Fill-34" sketch:type="MSShapeGroup"></path>
            <path d="M61.649,48.515 C62.267,48.515 62.61,48.185 62.61,47.684 L62.61,47.67 C62.61,47.128 62.261,46.846 61.663,46.846 L60.791,46.846 L60.791,48.515 L61.649,48.515 L61.649,48.515 Z M59.995,46.119 L61.731,46.119 C62.28,46.119 62.727,46.283 63.015,46.572 C63.27,46.826 63.413,47.189 63.413,47.629 L63.413,47.656 C63.413,48.398 63.001,48.858 62.418,49.064 L63.551,50.924 L62.631,50.924 L61.608,49.222 C61.595,49.229 61.573,49.229 61.56,49.229 L60.791,49.229 L60.791,50.924 L59.995,50.924 L59.995,46.119 L59.995,46.119 Z" id="Fill-35" sketch:type="MSShapeGroup"></path>
            <path d="M68.205,46.119 L69.036,46.119 L70.272,48.329 L71.501,46.119 L72.339,46.119 L72.339,50.924 L71.549,50.924 L71.549,47.526 L70.272,49.75 L70.251,49.75 L68.981,47.54 L68.981,50.924 L68.205,50.924 L68.205,46.119" id="Fill-36" sketch:type="MSShapeGroup"></path>
            <path d="M74.466,46.119 L77.494,46.119 L77.494,46.839 L75.256,46.839 L75.256,48.144 L77.239,48.144 L77.239,48.865 L75.256,48.865 L75.256,50.204 L77.528,50.204 L77.528,50.924 L74.466,50.924 L74.466,46.119" id="Fill-37" sketch:type="MSShapeGroup"></path>
            <path d="M79.464,46.119 L80.295,46.119 L81.53,48.329 L82.759,46.119 L83.597,46.119 L83.597,50.924 L82.808,50.924 L82.808,47.526 L81.53,49.75 L81.51,49.75 L80.239,47.54 L80.239,50.924 L79.464,50.924 L79.464,46.119" id="Fill-38" sketch:type="MSShapeGroup"></path>
            <path d="M88.931,48.549 L88.931,48.501 C88.931,47.471 88.382,46.778 87.62,46.778 C86.864,46.778 86.322,47.458 86.322,48.494 L86.322,48.542 C86.322,49.572 86.878,50.265 87.634,50.265 C88.389,50.265 88.931,49.585 88.931,48.549 L88.931,48.549 Z M85.499,48.562 L85.499,48.494 C85.499,47.066 86.378,46.043 87.634,46.043 C88.884,46.043 89.755,47.059 89.755,48.48 L89.755,48.549 C89.755,49.977 88.876,51 87.62,51 C86.37,51 85.499,49.984 85.499,48.562 L85.499,48.562 Z" id="Fill-39" sketch:type="MSShapeGroup"></path>
            <path d="M93.353,48.515 C93.97,48.515 94.313,48.185 94.313,47.684 L94.313,47.67 C94.313,47.128 93.964,46.846 93.366,46.846 L92.494,46.846 L92.494,48.515 L93.353,48.515 L93.353,48.515 Z M91.698,46.119 L93.435,46.119 C93.983,46.119 94.431,46.283 94.718,46.572 C94.973,46.826 95.116,47.189 95.116,47.629 L95.116,47.656 C95.116,48.398 94.704,48.858 94.121,49.064 L95.254,50.924 L94.334,50.924 L93.312,49.222 C93.298,49.229 93.276,49.229 93.263,49.229 L92.494,49.229 L92.494,50.924 L91.698,50.924 L91.698,46.119 L91.698,46.119 Z" id="Fill-40" sketch:type="MSShapeGroup"></path>
            <path d="M97.148,46.119 L97.944,46.119 L97.944,50.925 L97.148,50.925 L97.148,46.119 Z" id="Fill-41" sketch:type="MSShapeGroup"></path>
            <path d="M102.565,49.084 L101.879,47.155 L101.192,49.084 L102.565,49.084 L102.565,49.084 Z M101.508,46.091 L102.276,46.091 L104.041,50.924 L103.21,50.924 L102.813,49.792 L100.944,49.792 L100.547,50.924 L99.743,50.924 L101.508,46.091 L101.508,46.091 Z" id="Fill-42" sketch:type="MSShapeGroup"></path>
            <path d="M105.813,46.119 L106.608,46.119 L106.608,50.19 L108.669,50.19 L108.669,50.924 L105.813,50.924 L105.813,46.119" id="Fill-43" sketch:type="MSShapeGroup"></path>
            <path d="M113.274,46.119 L114.105,46.119 L115.341,48.329 L116.569,46.119 L117.407,46.119 L117.407,50.924 L116.618,50.924 L116.618,47.526 L115.341,49.75 L115.32,49.75 L114.05,47.54 L114.05,50.924 L113.274,50.924 L113.274,46.119" id="Fill-44" sketch:type="MSShapeGroup"></path>
            <path d="M119.467,49.091 L119.467,46.119 L120.263,46.119 L120.263,49.084 C120.263,49.86 120.642,50.265 121.259,50.265 C121.862,50.265 122.247,49.874 122.247,49.112 L122.247,46.119 L123.037,46.119 L123.037,49.064 C123.037,50.355 122.33,51 121.245,51 C120.175,51 119.467,50.348 119.467,49.091" id="Fill-45" sketch:type="MSShapeGroup"></path>
            <path d="M124.767,50.293 L125.247,49.695 C125.604,50.018 126.003,50.265 126.511,50.265 C126.971,50.265 127.267,50.011 127.267,49.654 L127.267,49.647 C127.267,49.345 127.108,49.146 126.347,48.865 C125.433,48.522 124.959,48.185 124.959,47.416 L124.959,47.402 C124.959,46.613 125.591,46.057 126.483,46.057 C127.039,46.057 127.554,46.235 127.993,46.62 L127.54,47.231 C127.211,46.963 126.847,46.778 126.463,46.778 C126.03,46.778 125.763,47.018 125.763,47.334 L125.763,47.341 C125.763,47.677 125.94,47.855 126.758,48.171 C127.65,48.515 128.063,48.885 128.063,49.585 L128.063,49.599 C128.063,50.444 127.403,50.986 126.504,50.986 C125.886,50.986 125.288,50.773 124.767,50.293" id="Fill-46" sketch:type="MSShapeGroup"></path>
            <path d="M129.957,46.119 L132.984,46.119 L132.984,46.839 L130.747,46.839 L130.747,48.144 L132.73,48.144 L132.73,48.865 L130.747,48.865 L130.747,50.204 L133.019,50.204 L133.019,50.924 L129.957,50.924 L129.957,46.119" id="Fill-47" sketch:type="MSShapeGroup"></path>
            <path d="M134.866,49.091 L134.866,46.119 L135.662,46.119 L135.662,49.084 C135.662,49.86 136.04,50.265 136.657,50.265 C137.262,50.265 137.646,49.874 137.646,49.112 L137.646,46.119 L138.436,46.119 L138.436,49.064 C138.436,50.355 137.729,51 136.644,51 C135.573,51 134.866,50.348 134.866,49.091" id="Fill-48" sketch:type="MSShapeGroup"></path>
            <path d="M140.502,46.119 L141.333,46.119 L142.568,48.329 L143.798,46.119 L144.635,46.119 L144.635,50.924 L143.845,50.924 L143.845,47.526 L142.568,49.75 L142.548,49.75 L141.278,47.54 L141.278,50.924 L140.502,50.924 L140.502,46.119" id="Fill-49" sketch:type="MSShapeGroup"></path>
        </g>
    </g>
</svg>