<?xml version="1.0" encoding="UTF-8" standalone="no"?>
<svg width="18px" height="18px" viewBox="0 0 18 18" version="1.1" xmlns="http://www.w3.org/2000/svg" xmlns:xlink="http://www.w3.org/1999/xlink" xmlns:sketch="http://www.bohemiancoding.com/sketch/ns">
    <!-- Generator: Sketch 3.3.2 (12043) - http://www.bohemiancoding.com/sketch -->
    <title>ext-link</title>
    <desc>Created with Sketch.</desc>
    <defs></defs>
    <g id="iPad-Portrait" stroke="none" stroke-width="1" fill="none" fill-rule="evenodd" sketch:type="MSPage">
        <g id="ext-link" sketch:type="MSArtboardGroup">
            <g id="External-LInk-Icon-Copy" sketch:type="MSLayerGroup" transform="translate(2.000000, 1.000000)">
                <path d="M8.17157288,4 L1.99201702,4 C0.900176167,4 0,4.8918564 0,5.99201702 L0,13.007983 C0,14.0998238 0.891856397,15 1.99201702,15 L9.00798298,15 C10.0998238,15 11,14.1081436 11,13.007983 L11,6.82842712 L10,7.82842712 L10,13.0024554 C10,13.553384 9.5536886,14 9.00245535,14 L1.99754465,14 C1.44661595,14 1,13.5536886 1,13.0024554 L1,5.99754465 C1,5.44661595 1.4463114,5 1.99754465,5 L7.17157288,5 L8.17157288,4 Z" id="Rectangle-52" fill="#000000" sketch:type="MSShapeGroup"></path>
                <path d="M5,10 L13,2" id="Path-58" stroke="#000000" stroke-linecap="round" stroke-linejoin="round" sketch:type="MSShapeGroup"></path>
                <path d="M8.5,1.5 L13.5,1.5" id="Path-59" stroke="#000000" stroke-linecap="round" stroke-linejoin="round" sketch:type="MSShapeGroup"></path>
                <path d="M13.5,6.5 L13.5,1.5" id="Path-60" stroke="#000000" stroke-linecap="round" stroke-linejoin="round" sketch:type="MSShapeGroup"></path>
            </g>
        </g>
    </g>
</svg>