<?xml version="1.0" encoding="UTF-8" standalone="no"?>
<svg width="20px" height="20px" viewBox="0 0 20 20" version="1.1" xmlns="http://www.w3.org/2000/svg" xmlns:xlink="http://www.w3.org/1999/xlink" xmlns:sketch="http://www.bohemiancoding.com/sketch/ns">
    <!-- Generator: Sketch 3.3.2 (12043) - http://www.bohemiancoding.com/sketch -->
    <title>Artboard 9</title>
    <desc>Created with Sketch.</desc>
    <defs></defs>
    <g id="iPad-Portrait" stroke="none" stroke-width="1" fill="none" fill-rule="evenodd" sketch:type="MSPage">
        <g id="Artboard-9" sketch:type="MSArtboardGroup">
            <g id="info" sketch:type="MSLayerGroup" transform="translate(1.000000, 1.000000)">
                <circle id="Oval-4" stroke="#0079FF" sketch:type="MSShapeGroup" cx="9" cy="9" r="9"></circle>
                <path d="M11.3582153,4.61572266 C11.3582153,4.91455228 11.2516897,5.17049047 11.0386353,5.38354492 C10.8255808,5.59659937 10.5751764,5.703125 10.2874146,5.703125 C9.97751717,5.703125 9.71881207,5.59659937 9.5112915,5.38354492 C9.30377094,5.17049047 9.20001221,4.91455228 9.20001221,4.61572266 C9.20001221,4.3279608 9.30377094,4.0775564 9.5112915,3.86450195 C9.71881207,3.6514475 9.97751717,3.54492188 10.2874146,3.54492188 C10.4866343,3.54492188 10.6678662,3.59334261 10.8311157,3.69018555 C10.9943652,3.78702848 11.1230261,3.91430585 11.2171021,4.07202148 C11.311178,4.22973712 11.3582153,4.41096903 11.3582153,4.61572266 L11.3582153,4.61572266 Z M11.2536621,12.0078125 C11.0378407,12.4892602 10.700279,12.9817683 10.2409668,13.4853516 C9.7816546,13.9889348 9.20613953,14.2407227 8.5144043,14.2407227 C8.04955822,14.2407227 7.7009289,14.1258963 7.46850586,13.8962402 C7.23608282,13.6665841 7.11987305,13.3940445 7.11987305,13.0786133 C7.11987305,12.7576481 7.22224833,12.3121773 7.42700195,11.7421875 L8.49780273,8.81201172 C8.60294649,8.54638539 8.65551758,8.36653693 8.65551758,8.27246094 C8.65551758,8.21158824 8.63061548,8.15625025 8.58081055,8.10644531 C8.53100561,8.05664038 8.47566762,8.03173828 8.41479492,8.03173828 C8.22664294,8.03173828 8.02050893,8.17838395 7.79638672,8.47167969 C7.5722645,8.76497542 7.40486709,9.02783087 7.29418945,9.26025391 L6.5637207,9.26025391 C6.89021973,8.5297815 7.31493879,7.96395057 7.83789062,7.56274414 C8.36084246,7.16153771 8.882403,6.9609375 9.40258789,6.9609375 C9.76782409,6.9609375 10.0707996,7.05086173 10.3115234,7.23071289 C10.5522473,7.41056405 10.6726074,7.64990085 10.6726074,7.94873047 C10.6726074,8.26416173 10.6117356,8.58235517 10.4899902,8.90332031 L9.19506836,12.3813477 C9.10652625,12.6193046 9.06225586,12.8129875 9.06225586,12.9624023 C9.06225586,13.0288089 9.0885414,13.0938311 9.14111328,13.1574707 C9.19368516,13.2211103 9.2504066,13.2529297 9.3112793,13.2529297 C9.47729575,13.2529297 9.64884352,13.1643889 9.82592773,12.9873047 C10.003012,12.8102205 10.2243639,12.4837263 10.4899902,12.0078125 L11.2536621,12.0078125 Z" id="i" fill="#0079FF" sketch:type="MSShapeGroup"></path>
            </g>
        </g>
    </g>
</svg>